<?xml version="1.0" encoding="UTF-8"?>
<!DOCTYPE svg PUBLIC "-//W3C//DTD SVG 1.1//EN" "http://www.w3.org/Graphics/SVG/1.1/DTD/svg11.dtd">
<svg version="1.1" id="Layer_1" xmlns="http://www.w3.org/2000/svg" xmlns:xlink="http://www.w3.org/1999/xlink" x="0px" y="0px" width="16px" height="16px" viewBox="0 0 16 16" enable-background="new 0 0 16 16" xml:space="preserve">
  <g id="main">
    <g id="icon">
      <path d="M0.8506,0.5451L0.6682,0.6682L0.5451,0.8506L0.5,1.074L0.5,3.5L9.4,3.5L9.4,2.5L8.965,2.5L8.593,2.441L8.257,2.272L6.628,0.699L6.335,0.5512L6.011,0.5L1.074,0.5zz" fill="#FFFFFF"/>
      <path d="M0.975,0.009961L0.7516,0.05508L0.6537,0.0748L0.5711,0.1305L0.3887,0.2535L0.308,0.308L0.2535,0.3887L0.1305,0.5711L0.0748,0.6537L0.05508,0.7516L0.009961,0.975L0,1.024L0,1.074L0,3.5L0,4L0.5,4L9.4,4L9.9,4L9.9,3.5L9.9,2.5L9.9,2L9.4,2L9.004,2L8.748,1.96L8.55,1.86L6.975,0.3393L6.921,0.2867L6.853,0.2525L6.56,0.1047L6.49,0.06953L6.413,0.05723L6.089,0.006055L6.05,0L6.011,0L1.074,0L1.024,0zM5.971,1L6.18,1.033L6.336,1.112L7.91,2.632L7.964,2.684L8.032,2.718L8.368,2.888L8.438,2.923L8.515,2.935L8.887,2.994L8.9,2.996L8.9,3L1,3L1,1.124L1.015,1.047L1.028,1.028L1.047,1.015L1.124,1zz" fill="#ecc949"/>
      <path d="M7.347,3.379L6.904,3.47L6.453,3.5L0.5,3.5L0.5,13.5L7.399,13.5L7.384,13.47L7.16,13.47L6.886,13.45L6.631,13.37L6.4,13.24L6.199,13.07L6.033,12.87L5.907,12.64L5.828,12.38L5.8,12.11L5.8,10.86L5.828,10.58L5.907,10.33L6.033,10.1L6.199,9.896L6.4,9.729L6.631,9.603L6.886,9.524L7.16,9.496L7.384,9.496L7.74,8.876L7.615,8.648L7.507,8.397L7.452,8.139L7.491,7.627L7.719,7.166L7.898,6.972L8.119,6.812L9.188,6.186L9.519,6.047L9.874,6L10.24,6.049L10.57,6.189L10.85,6.411L11.07,6.704L11.17,6.896L11.49,6.885L11.83,6.898L11.96,6.678L12.18,6.396L12.46,6.182L12.78,6.047L13.13,6L13.49,6.047L13.82,6.186L14.5,6.585L14.5,2.5L8.537,2.5zz" fill="#ffe791"/>
      <path d="M8.24,2.098L7.139,2.911L6.837,2.973L6.437,3L0.5,3L0,3L0,3.5L0,13.5L0,14L0.5,14L7.687,14L7.384,13.47L7.16,13.47L6.886,13.45L6.631,13.37L6.4,13.24L6.199,13.07L6.138,13L1,13L1,4L6.453,4L6.47,4L6.487,3.999L6.938,3.968L6.971,3.966L7.004,3.959L7.447,3.869L7.555,3.847L7.644,3.781L8.702,3L14,3L14,6.292L14.89,6.812L15,6.894L15,2.5L15,2L14.5,2L8.537,2L8.372,2zz" fill="#ecc949"/>
    </g>
    <g id="overlay">
      <path d="M12.447,14.743c-0.31,0.093,-0.632,0.141,-0.957,0.141c-0.326,0,-0.648,-0.047,-0.957,-0.141l-0.52,0.971c-0.043,0.08,-0.142,0.109,-0.22,0.063l-1.069,-0.626c-0.075,-0.044,-0.102,-0.141,-0.061,-0.219l0.524,-0.978c-0.477,-0.457,-0.807,-1.037,-0.958,-1.681H7.16c-0.088,0,-0.16,-0.073,-0.16,-0.163v-1.251c0,-0.09,0.072,-0.163,0.16,-0.163h1.069c0.151,-0.644,0.481,-1.223,0.958,-1.681l-0.521,-0.946c-0.043,-0.078,-0.016,-0.176,0.06,-0.221l1.069,-0.626c0.077,-0.045,0.176,-0.018,0.219,0.061l0.519,0.942c0.31,-0.093,0.632,-0.141,0.957,-0.141c0.326,0,0.648,0.047,0.957,0.141l0.549,-0.947c0.045,-0.077,0.142,-0.103,0.217,-0.058l1.069,0.626c0.077,0.045,0.103,0.146,0.058,0.224l-0.547,0.944c0.477,0.457,0.807,1.037,0.958,1.681h1.069c0.088,0,0.16,0.073,0.16,0.163v1.251c0,0.09,-0.072,0.163,-0.16,0.163H14.75c-0.151,0.644,-0.481,1.223,-0.958,1.681l0.55,0.977c0.044,0.078,0.018,0.177,-0.059,0.222l-1.069,0.626c-0.077,0.045,-0.175,0.018,-0.218,-0.06L12.447,14.743zM11.49,9.369c-1.145,0,-2.077,0.949,-2.077,2.115S10.344,13.6,11.49,13.6s2.077,-0.949,2.077,-2.115S12.635,9.369,11.49,9.369z" fill="#383838"/>
    </g>
  </g>
</svg>