<?xml version="1.0" encoding="UTF-8"?>
<!DOCTYPE svg PUBLIC "-//W3C//DTD SVG 1.1//EN" "http://www.w3.org/Graphics/SVG/1.1/DTD/svg11.dtd">
<svg version="1.1" id="Layer_1" xmlns="http://www.w3.org/2000/svg" xmlns:xlink="http://www.w3.org/1999/xlink" x="0px" y="0px" width="16px" height="16px" viewBox="0 0 16 16" enable-background="new 0 0 16 16" xml:space="preserve">
  <g id="main">
    <g id="icon">
      <path d="M1.851,0.5451L1.668,0.6682L1.545,0.8506L1.5,1.074L1.5,13.5L7.8,13.5L7.8,5.8L13.5,5.8L13.5,2.5L8.465,2.5L8.093,2.441L7.757,2.272L6.128,0.699L5.835,0.5512L5.511,0.5L2.074,0.5zz" fill="#FFFFFF"/>
      <path d="M1.975,0.009961L1.752,0.05508L1.654,0.0748L1.571,0.1305L1.389,0.2535L1.308,0.308L1.254,0.3887L1.13,0.5711L1.075,0.6537L1.055,0.7516L1.01,0.975L1,1.024L1,1.074L1,13.5L1,14L1.5,14L7.8,14L7.8,13L2,13L2,1.124L2.015,1.047L2.028,1.028L2.047,1.015L2.124,1L5.471,1L5.68,1.033L5.836,1.112L7.41,2.632L7.464,2.684L7.532,2.718L7.868,2.888L7.938,2.923L8.015,2.935L8.387,2.994L8.426,3L8.465,3L13,3L13,5.8L13.74,5.8L14,6.059L14,2.5L14,2L13.5,2L8.504,2L8.248,1.96L8.05,1.86L6.475,0.3393L6.421,0.2867L6.353,0.2525L6.06,0.1047L5.99,0.06953L5.913,0.05723L5.589,0.006055L5.55,0L5.511,0L2.074,0L2.024,0zz" fill="#ecc949"/>
      <path d="M1.5,13.5L7.8,13.5L7.8,5.8L13.74,5.8L14.3,6.362L14.4,5.5L0.6,5.5zz" fill="#ffe791"/>
      <path d="M0.1031,5.556L1.003,13.56L1.053,14L1.5,14L7.8,14L7.8,13L1.947,13L1.159,6L7.8,6L7.8,5.8L13.74,5.8L14.76,6.815L14.9,5.556L14.96,5L14.4,5L0.6,5L0.04062,5zz" fill="#ecc949"/>
    </g>
    <g id="overlay">
      <polygon points="15.5,15.5 9.5,15.5 9.5,7.5 13.036,7.5 15.5,9.964" fill="#FFFFFF" stroke="#383838" stroke-width="1" stroke-miterlimit="10" stroke-linejoin="miter"/>
      <polyline points="15.5,10.5 12.5,10.5 12.5,7.5" fill="none" stroke="#383838" stroke-width="1" stroke-miterlimit="10" stroke-linejoin="miter"/>
    </g>
  </g>
</svg>