<?xml version="1.0" encoding="UTF-8"?>
<!DOCTYPE svg PUBLIC "-//W3C//DTD SVG 1.1//EN" "http://www.w3.org/Graphics/SVG/1.1/DTD/svg11.dtd">
<svg version="1.1" id="Layer_1" xmlns="http://www.w3.org/2000/svg" xmlns:xlink="http://www.w3.org/1999/xlink" x="0px" y="0px" width="150px" height="150px" viewBox="0 0 32 32" enable-background="new 0 0 32 32" xml:space="preserve">
  <g id="main">
    <g id="icon">
      <path d="M1,26.9L1.088,27.32L1.323,27.67L1.662,27.91L2.062,28L19,28L19,18.1L19.04,17.68L19.17,17.28L19.36,16.93L19.62,16.62L19.93,16.36L20.28,16.17L20.68,16.04L21.1,16L27.12,16L27.69,16.05L28.21,16.2L28.69,16.44L29,16.69L28.99,10L1,10zz" fill-rule="evenodd" fill="#fcefb1"/>
      <path d="M1.733,3.094L1.352,3.352L1.094,3.733L1,4.2L1,9L29,9L29,7.2L28.91,6.733L28.65,6.352L28.27,6.094L27.8,6L15.83,6L15.44,5.961L15.06,5.848L14.72,5.664L14.41,5.414L12.59,3.586L12.28,3.336L11.94,3.152L11.56,3.039L11.17,3L2.2,3zz" fill-rule="evenodd" fill="#ecc949"/>
    </g>
    <g id="overlay">
      <path d="M30.9,31.5h-9.8c-0.331,0,-0.6,-0.269,-0.6,-0.6V18.1c0,-0.331,0.269,-0.6,0.6,-0.6c0,0,5.55,0,6.017,0s0.733,0.149,0.925,0.341c0.192,0.192,2.717,2.717,3.034,3.034c0.317,0.317,0.425,0.575,0.425,1.042s0,8.983,0,8.983C31.5,31.231,31.231,31.5,30.9,31.5z" fill-rule="evenodd" fill="#FFFFFF"/>
      <path d="M31.429,20.521l-3.034,-3.034c-0.328,-0.328,-0.746,-0.488,-1.278,-0.488H21.1c-0.607,0,-1.1,0.493,-1.1,1.1v12.8c0,0.607,0.493,1.1,1.1,1.1h9.8c0.607,0,1.1,-0.493,1.1,-1.1v-8.983C32,21.324,31.84,20.933,31.429,20.521zM28,18.507L30.493,21h-2.448c-0.016,-0.009,-0.034,-0.023,-0.045,-0.035V18.507zM30.9,31h-9.8c-0.055,0,-0.1,-0.045,-0.1,-0.1V18.1c0,-0.055,0.045,-0.1,0.1,-0.1h5.9v3c0,0.473,0.399,0.867,0.798,0.972c0.051,0.018,0.106,0.027,0.164,0.027H31v8.9C31,30.955,30.955,31,30.9,31z" fill="#6D6E71"/>
    </g>
  </g>
</svg>