<?xml version="1.0" encoding="UTF-8"?>
<!DOCTYPE svg PUBLIC "-//W3C//DTD SVG 1.1//EN" "http://www.w3.org/Graphics/SVG/1.1/DTD/svg11.dtd">
<svg version="1.1" id="Layer_1" xmlns="http://www.w3.org/2000/svg" xmlns:xlink="http://www.w3.org/1999/xlink" x="0px" y="0px" width="150px" height="150px" viewBox="0 0 32 32" enable-background="new 0 0 32 32" xml:space="preserve">
  <g id="main">
    <g id="icon">
      <path d="M1,26.9L1.088,27.32L1.323,27.67L1.662,27.91L2.062,28L17.48,28L17.19,27.16L16.97,26.1L16.9,25L16.94,24.17L17.06,23.37L17.26,22.59L17.54,21.85L17.88,21.14L18.28,20.47L18.75,19.85L19.27,19.27L19.85,18.75L20.47,18.28L21.14,17.88L21.85,17.54L22.59,17.26L23.37,17.06L24.17,16.94L25,16.9L26.1,16.97L27.16,17.19L28.16,17.54L29,17.96L28.99,10L1,10zz" fill-rule="evenodd" fill="#fcefb1"/>
      <path d="M1.733,3.094L1.352,3.352L1.094,3.733L1,4.2L1,9L29,9L29,7.2L28.91,6.733L28.65,6.352L28.27,6.094L27.8,6L15.83,6L15.44,5.961L15.06,5.848L14.72,5.664L14.41,5.414L12.59,3.586L12.28,3.336L11.94,3.152L11.56,3.039L11.17,3L2.2,3zz" fill-rule="evenodd" fill="#ecc949"/>
    </g>
    <g id="overlay">
      <path d="M25.007,18.0138c-3.8559,0,-6.993,3.1371,-6.993,6.9931c0,3.856,3.137,6.9931,6.993,6.9931S32,28.8629,32,25.0069C32,21.1508,28.863,18.0138,25.007,18.0138zM23.4161,24.939c0,-0.476,0.0367,-0.939,0.0962,-1.439h2.8798c0.0595,0.5,0.0962,0.963,0.0962,1.439c0,0.5095,-0.0445,1.061,-0.1152,1.561h-2.8416C23.4606,26,23.4161,25.4485,23.4161,24.939zM27.476,23.5h2.9201c0.132,0.5,0.2041,0.9762,0.2041,1.4935c0,0.522,-0.0734,1.0065,-0.2078,1.5065h-2.9259c0.0679,-0.5,0.1102,-1.0192,0.1102,-1.5136C27.5767,24.4951,27.5383,24,27.476,23.5zM30.0115,22.5h-2.6944c-0.2399,-1.3,-0.5849,-2.36,-0.7619,-2.8801C28.0679,20.0564,29.3186,21.1,30.0115,22.5zM25.3961,19.422c0.1358,0.3773,0.56,1.578,0.8381,3.078h-2.5641c0.2759,-1.4,0.6956,-2.6814,0.835,-3.0694c0.1655,-0.0148,0.3327,-0.0237,0.5019,-0.0237C25.138,19.4069,25.2674,19.4131,25.3961,19.422zM23.4221,19.6303c-0.183,0.5241,-0.5343,1.6697,-0.7792,2.8697h-2.6403C20.6899,21.1,21.9259,20.0733,23.4221,19.6303zM19.618,23.5h2.8617c-0.064,0.5,-0.1035,0.9951,-0.1035,1.4864c0,0.4944,0.0434,1.0136,0.1132,1.5136h-2.8677c-0.1344,-0.5,-0.2078,-0.9845,-0.2078,-1.5065C19.4139,24.4762,19.4859,24,19.618,23.5zM20.0092,27.5h2.651c0.2558,1.3,0.6165,2.375,0.7868,2.8638C21.9444,29.9265,20.7017,28.9,20.0092,27.5zM24.5281,30.5716c-0.1046,-0.2971,-0.536,-1.5716,-0.8299,-3.0716h2.508c-0.297,1.5,-0.7343,2.8007,-0.833,3.0802c-0.1212,0.0079,-0.243,0.0133,-0.3661,0.0133C24.8456,30.5935,24.6861,30.5851,24.5281,30.5716zM26.5311,30.374c0.1642,-0.4834,0.5184,-1.574,0.7692,-2.874h2.7046C29.3069,28.9,28.0498,29.9432,26.5311,30.374z" fill="#3E79B4"/>
    </g>
  </g>
</svg>