<?xml version="1.0" encoding="UTF-8"?>
<!DOCTYPE svg PUBLIC "-//W3C//DTD SVG 1.1//EN" "http://www.w3.org/Graphics/SVG/1.1/DTD/svg11.dtd">
<svg version="1.1" id="Layer_1" xmlns="http://www.w3.org/2000/svg" xmlns:xlink="http://www.w3.org/1999/xlink" x="0px" y="0px" width="16px" height="16px" viewBox="0 0 16 16" enable-background="new 0 0 16 16" xml:space="preserve">
  <g id="main">
    <g id="icon">
      <path d="M1.851,0.5451L1.668,0.6682L1.545,0.8506L1.5,1.074L1.5,13.5L5.586,13.5L5.822,13.08L6.148,12.68L9.243,9.589L9.258,8.751L9.459,7.935L9.838,7.17L10.39,6.487L10.98,6.006L11.64,5.65L12.36,5.429L13.1,5.353L13.5,5.397L13.5,2.5L8.465,2.5L8.093,2.441L7.757,2.272L6.128,0.699L5.835,0.5512L5.511,0.5L2.074,0.5zz" fill="#FFFFFF"/>
      <path d="M1.975,0.009961L1.752,0.05508L1.654,0.0748L1.571,0.1305L1.389,0.2535L1.308,0.308L1.254,0.3887L1.13,0.5711L1.075,0.6537L1.055,0.7516L1.01,0.975L1,1.024L1,1.074L1,13.5L1,14L1.5,14L5.418,14L5.419,13.99L5.577,13.52L5.822,13.08L5.886,13L2,13L2,1.124L2.015,1.047L2.028,1.028L2.047,1.015L2.124,1L5.471,1L5.68,1.033L5.836,1.112L7.41,2.632L7.464,2.684L7.532,2.718L7.868,2.888L7.938,2.923L8.015,2.935L8.387,2.994L8.426,3L8.465,3L13,3L13,5.363L13.1,5.353L13.91,5.442L14,5.472L14,2.5L14,2L13.5,2L8.504,2L8.248,1.96L8.05,1.86L6.475,0.3393L6.421,0.2867L6.353,0.2525L6.06,0.1047L5.99,0.06953L5.913,0.05723L5.589,0.006055L5.55,0L5.511,0L2.074,0L2.024,0zz" fill="#ecc949"/>
      <path d="M1.5,13.5L5.586,13.5L5.822,13.08L6.148,12.68L9.243,9.589L9.258,8.751L9.459,7.935L9.838,7.17L10.39,6.487L10.98,6.006L11.64,5.65L12.12,5.5L0.6,5.5zM14.39,5.607L14.4,5.5L14.08,5.5zz" fill="#ffe791"/>
      <path d="M0.1031,5.556L1.003,13.56L1.053,14L1.5,14L5.418,14L5.419,13.99L5.577,13.52L5.822,13.08L5.886,13L1.947,13L1.159,6L10.99,6L11.64,5.65L12.36,5.429L13.1,5.353L13.91,5.442L14.68,5.707L14.87,5.798L14.9,5.556L14.96,5L14.4,5L0.6,5L0.04062,5zz" fill="#ecc949"/>
    </g>
    <g id="overlay">
      <path d="M14.846,10.946c-0.681,0.681,-1.673,0.852,-2.443,0.486l-3.754,3.754c-0.398,0.398,-1.019,0.422,-1.388,0.053l0,0c-0.369,-0.369,-0.345,-0.99,0.053,-1.388l3.754,-3.754c-0.367,-0.77,-0.195,-1.763,0.486,-2.443c0.681,-0.681,1.644,-0.823,2.414,-0.457l-1.196,1.196c-0.398,0.398,-0.422,1.019,-0.053,1.388l0,0c0.369,0.369,0.99,0.345,1.388,-0.053l1.196,-1.196C15.67,9.301,15.527,10.265,14.846,10.946z" fill="#92CBEE" stroke="#0964B0" stroke-width="0.9" stroke-miterlimit="10"/>
    </g>
  </g>
</svg>