<?xml version="1.0" encoding="UTF-8"?>
<!DOCTYPE svg PUBLIC "-//W3C//DTD SVG 1.1//EN" "http://www.w3.org/Graphics/SVG/1.1/DTD/svg11.dtd">
<svg version="1.1" id="Layer_1" xmlns="http://www.w3.org/2000/svg" xmlns:xlink="http://www.w3.org/1999/xlink" x="0px" y="0px" width="150px" height="150px" viewBox="0 0 32 32" enable-background="new 0 0 32 32" xml:space="preserve">
  <g id="main">
    <g id="icon">
      <path d="M1,26.9L1.088,27.32L1.323,27.67L1.662,27.91L2.062,28L16.87,28L17.25,27.65L17.87,27.28L18.63,27.01L19.55,26.85L19.71,26.84L20,26.85L20,19.1L20.03,18.81L20.11,18.53L20.41,18.03L20.84,17.65L21.1,17.53L21.37,17.46L29,16.35L28.99,10L1,10zM24,22.72L24,28L25.04,28L25.06,27.91L25.25,27.43L25.54,26.97L25.92,26.55L26.39,26.2L26.95,25.92L27.61,25.73L28.23,25.63L28.81,25.6L29,25.6L29,21.96zz" fill-rule="evenodd" fill="#fcefb1"/>
      <path d="M1.733,3.094L1.352,3.352L1.094,3.733L1,4.2L1,9L29,9L29,7.2L28.91,6.733L28.65,6.352L28.27,6.094L27.8,6L15.83,6L15.44,5.961L15.06,5.848L14.72,5.664L14.41,5.414L12.59,3.586L12.28,3.336L11.94,3.152L11.56,3.039L11.17,3L2.2,3zz" fill-rule="evenodd" fill="#ecc949"/>
    </g>
    <g id="overlay">
      <path d="M19.5405,32c-1.691,0,-2.4241,-0.9724,-2.4721,-1.9331c-0.0482,-0.9641,0.5922,-2.0258,2.5784,-2.2247c0.0364,-0.0036,0.862,-0.0054,1.1141,0.1514c0.0395,0.0246,0.2436,-0.0585,0.2391,-0.1936c-0.0001,-0.4853,-0.0034,-7.6271,0,-8.7c0.0008,-0.2699,0.2592,-0.6129,0.5249,-0.6549l9.7763,-1.4196c0.0276,-0.0043,0.0563,-0.0066,0.0846,-0.0066c0.2998,0,0.5438,0.2454,0.6142,0.5471v11.1427c-0.0705,0.8604,-1.1091,2.0522,-3.0592,2.0522c-0.0936,0,-0.1896,-0.0028,-0.2854,-0.0083c-1.906,-0.1094,-2.6508,-1.0689,-2.7123,-1.9304c-0.0608,-0.8518,0.5601,-1.8522,1.8643,-2.1164c0.3576,-0.0724,0.6957,-0.1091,1.0049,-0.1091c0.6636,0,0.9491,0.1683,1.1198,0.2686c0.0108,0.0063,0.0202,0.0113,0.0281,0.0151c0.0082,-0.0313,0.0398,-0.1798,0.0398,-0.1798v-5.9009l-7,1.0588v8.2299c0,0.0169,-0.1356,1.6942,-3.1744,1.9007c-0.1055,0.0072,-0.2111,0.0108,-0.3139,0.0108C19.5116,32,19.5406,32,19.5405,32z" fill-rule="evenodd" fill="#797979"/>
    </g>
  </g>
</svg>