<?xml version="1.0" encoding="UTF-8"?>
<!DOCTYPE svg PUBLIC "-//W3C//DTD SVG 1.1//EN" "http://www.w3.org/Graphics/SVG/1.1/DTD/svg11.dtd">
<svg version="1.1" id="Layer_1" xmlns="http://www.w3.org/2000/svg" xmlns:xlink="http://www.w3.org/1999/xlink" x="0px" y="0px" width="16px" height="16px" viewBox="0 0 16 16" enable-background="new 0 0 16 16" xml:space="preserve">
  <g id="main">
    <g id="icon">
      <path d="M0,13L0.07852,13.39L0.293,13.71L0.6107,13.92L1,14L9,14L9,6.717L9.035,6.371L9.137,6.049L9.296,5.758L9.508,5.503L9.765,5.294L10.06,5.135L10.38,5.035L10.73,5L15,5L15,4L0,4zz" fill-rule="evenodd" fill="#E9B664"/>
      <path d="M0.6107,0.07852L0.293,0.293L0.07852,0.6107L0,1L0,3L15,3L14.92,2.611L14.71,2.293L14.39,2.079L14,2L8.6,2L8.286,1.969L7.988,1.878L7.712,1.731L7.469,1.531L6.406,0.4686L6.162,0.2688L5.887,0.1219L5.588,0.03105L5.274,0L1,0zz" fill-rule="evenodd" fill="#ecc074"/>
    </g>
    <g id="overlay">
      <path d="M15.283,6h-4.55c-0.396,0,-0.733,0.321,-0.733,0.717V9h6V6.717C16,6.321,15.679,6,15.283,6zM15,8h-2V7h2V8zM10,15.283c0,0.396,0.338,0.717,0.733,0.717h4.55c0.396,0,0.717,-0.321,0.717,-0.717V10h-6V15.283zM13,11.8c0.663,0,1.2,0.537,1.2,1.2c0,0.663,-0.537,1.2,-1.2,1.2s-1.2,-0.537,-1.2,-1.2C11.8,12.337,12.337,11.8,13,11.8z" fill="#797979"/>
      <path d="M13,7h2v1h-2V7zM13,11.8c-0.663,0,-1.2,0.537,-1.2,1.2c0,0.663,0.537,1.2,1.2,1.2c0.663,0,1.2,-0.537,1.2,-1.2C14.2,12.337,13.663,11.8,13,11.8z" fill-rule="evenodd" fill="#FFFFFF"/>
    </g>
  </g>
</svg>