<?xml version="1.0" encoding="UTF-8"?>
<!DOCTYPE svg PUBLIC "-//W3C//DTD SVG 1.1//EN" "http://www.w3.org/Graphics/SVG/1.1/DTD/svg11.dtd">
<svg version="1.1" id="Layer_1" xmlns="http://www.w3.org/2000/svg" xmlns:xlink="http://www.w3.org/1999/xlink" x="0px" y="0px" width="32px" height="32px" viewBox="0 0 32 32" enable-background="new 0 0 32 32" xml:space="preserve">
  <g id="main" style="opacity:0.1">
    <g id="icon">
      <path d="M1,26.9L1.088,27.32L1.323,27.67L1.662,27.91L2.062,28L20,28L20,14.91L20.04,14.53L20.15,14.17L20.33,13.84L20.56,13.56L20.84,13.33L21.17,13.15L21.53,13.04L21.91,13L28.99,13L28.99,10L1,10zz" fill-rule="evenodd" fill="#E9B664"/>
      <path d="M1.733,3.094L1.352,3.352L1.094,3.733L1,4.2L1,9L29,9L29,7.2L28.91,6.733L28.65,6.352L28.27,6.094L27.8,6L15.83,6L15.44,5.961L15.06,5.848L14.72,5.664L14.41,5.414L12.59,3.586L12.28,3.336L11.94,3.152L11.56,3.039L11.17,3L2.2,3zz" fill-rule="evenodd" fill="#ecc074"/>
    </g>
    <g id="overlay">
      <path d="M31.088,14h-9.175c-0.504,0,-0.913,0.409,-0.913,0.913V17h11v-2.088C32,14.409,31.591,14,31.088,14zM30,16h-2v-1h2V16zM21,21h11v-3H21V21zM28,19h2v1h-2V19zM21,31.088c0,0.504,0.409,0.913,0.913,0.913h9.175c0.504,0,0.913,-0.409,0.913,-0.913V22H21V31.088zM26.5,27c0.828,0,1.5,0.672,1.5,1.5c0,0.828,-0.672,1.5,-1.5,1.5s-1.5,-0.672,-1.5,-1.5C25,27.672,25.672,27,26.5,27z" fill="#797979"/>
      <path d="M30,16h-2v-1h2V16zM30,19h-2v1h2V19zM26.5,27c-0.828,0,-1.5,0.672,-1.5,1.5s0.672,1.5,1.5,1.5s1.5,-0.672,1.5,-1.5S27.328,27,26.5,27z" fill="#FFFFFF"/>
    </g>
  </g>
</svg>